<svg id="Layer_1" data-name="Layer 1" xmlns="http://www.w3.org/2000/svg" viewBox="0 0 558.18 90.04"><defs><style>.cls-1{fill:#fff;}</style></defs><path class="cls-1" d="M474.89,5.1h-2.32v6.42h-1.22V5.1H469v-1h5.86Zm9.65,6.42h-1.22V5.33h0l-2.43,6.19h-.77l-2.43-6.19h0v6.19H476.4V4.11h1.89l2.21,5.63,2.17-5.63h1.87Z"/><polygon class="cls-1" points="20.69 3.88 0 80.66 48.95 80.66 53.36 63.65 34.98 63.65 50.94 3.88 20.69 3.88"/><path class="cls-1" d="M286.12,4l-7,76.78h-31.2l2.74-16.7H241.9l-6.31,16.7H204.4L238.75,4ZM257.76,21.32s-11.13,25.94-10.4,26.05,6.63,0,6.63,0Z"/><path class="cls-1" d="M284.65,80.77,305.55,4h38.23V35.34L360.7,4h38.12L378.34,80.77h-27.1l11.5-42.46L340.21,80.77s-17.12.21-17.22,0,.1-41.81.1-41.81L311.64,80.77Z"/><path class="cls-1" d="M90.24,3.36h36.55S144.33,2.1,140,18.27s-12.75,47.37-12.75,47.37-3.43,15.85-18.55,15.53-38.24,0-38.24,0-16.91.44-12.29-16S71.86,16.38,71.86,16.38s2.31-11.51,18.38-13m9.65,21.21L90.54,58.5s-1.89,5.15,2.21,5.25,4.72-2.52,5.67-5.25,9-33.4,9-33.4,1.37-4-2.52-4.52-5,4-5,4"/><path class="cls-1" d="M150.23,4H202s11.78-.26,13,8.4-4.41,18.38-4.83,18.91-3.26,6.19-13,8.29c0,0,9,2.95,8.19,10.4s-7,30.78-7,30.78H167.66l7.28-29.1a2.17,2.17,0,0,0-2.18-2.73c-2.73-.1-4.62-.1-4.62-.1l-8.36,31.93H129.53Zm25.39,17.33-2.94,10.92a39.63,39.63,0,0,0,5.09,0c1.32-.21,2.58-.31,4-4.72s0-6-1-6.2a41.45,41.45,0,0,0-5.17,0"/><polygon class="cls-1" points="433.69 0 540.94 89.94 556.45 89.94 544.22 80.8 558.18 80.83 534.33 64.81 522.35 64.83 508.18 54.27 518.98 54.27 500.64 41.97 491.84 41.97 481.72 34.53 489.61 34.53 477.69 26.5 470.8 26.5 463.94 21.46 470.2 21.46 462.26 16.11 456.66 16.11 450.75 11.76 455.81 11.76 451.05 8.55 446.38 8.55 442.32 5.57 446.62 5.57 444.24 3.96 440.14 3.96 434.74 0 433.69 0"/><polygon class="cls-1" points="429.61 54.27 490.72 54.27 477.13 41.97 428.13 41.97 429.61 54.27"/><polygon class="cls-1" points="426.27 26.5 427.23 34.53 468.92 34.53 460.06 26.5 426.27 26.5"/><polygon class="cls-1" points="425.01 16.11 425.66 21.46 454.49 21.46 448.58 16.11 425.01 16.11"/><polygon class="cls-1" points="424.11 8.55 424.49 11.76 443.78 11.76 440.24 8.55 424.11 8.55"/><polygon class="cls-1" points="423.55 3.96 423.75 5.57 436.95 5.57 435.17 3.96 423.55 3.96"/><polygon class="cls-1" points="512.61 74.1 502.35 64.81 430.88 64.81 432 74.1 432.87 80.86 519.83 80.86 512.61 74.1"/><polygon class="cls-1" points="420.74 0 420.2 3.96 416.1 3.96 415.68 5.57 419.98 5.57 419.58 8.55 414.91 8.55 414.07 11.76 419.14 11.76 418.55 16.11 412.94 16.11 411.56 21.46 417.82 21.46 417.13 26.5 410.24 26.5 408.16 34.53 416.04 34.53 415.03 41.97 406.23 41.97 402.88 54.27 413.36 54.27 412.3 64.81 399.91 64.81 395.73 80.8 410.68 80.8 409.75 90.04 424.67 90.04 421.8 0 420.74 0"/></svg>